<svg width="96" height="96" xmlns="http://www.w3.org/2000/svg" xmlns:xlink="http://www.w3.org/1999/xlink" xml:space="preserve" overflow="hidden"><g transform="translate(-947 -238)"><path d="M995 324.3C988.5 324.3 982.8 319.7 981.4 313.4 979.9 307 983.1 300.5 989 297.7L989 253.7C989 250.4 991.7 247.7 995 247.7 998.3 247.7 1001 250.4 1001 253.7L1001 297.7C1006.9 300.5 1010 307 1008.6 313.4 1007.1 319.7 1001.5 324.2 995 324.3L995 324.3ZM1007 294.3 1007 253.7C1007 247.1 1001.6 241.7 995 241.7 988.4 241.7 983 247 983 253.7L983 294.3C976.1 299.5 973.3 308.5 976 316.6 978.7 324.8 986.4 330.3 995 330.3 1003.6 330.3 1011.3 324.8 1014 316.6 1016.7 308.5 1013.9 299.5 1007 294.3Z"/><path d="M997 300.5 997 276.3 993 276.3 993 300.5C988 301.5 984.5 306.2 985.1 311.3 985.6 316.4 989.9 320.3 995 320.3 1000.1 320.3 1004.4 316.4 1004.9 311.3 1005.5 306.2 1002 301.5 997 300.5Z"/></g></svg>
