<svg width="96" height="96" xmlns="http://www.w3.org/2000/svg" xmlns:xlink="http://www.w3.org/1999/xlink" xml:space="preserve" overflow="hidden"><g transform="translate(-897 -64)"><path d="M962.6 97.2C963.5 95 964 92.6 964 90 964 79.5 955.5 71 945 71 934.5 71 926 79.5 926 90 926 92.5 926.5 94.9 927.4 97.2 923.7 97.9 921 101.2 921 105 921 109.4 924.6 113 929 113 932.7 113 935.8 110.4 936.7 107L937.2 107C938.1 110.4 941.2 113 944.9 113 948.6 113 951.7 110.4 952.6 107L953.1 107C954 110.4 957.1 113 960.8 113 965.2 113 968.8 109.4 968.8 105 969 101.1 966.2 97.9 962.6 97.2Z"/><path d="M945 117C941.9 117 939.1 115.8 937 113.9 935.1 115.6 932.7 116.7 930.1 116.9L937.2 134.2 937.9 135.8 945 153 958.9 119.3 959.9 116.9C957.3 116.7 954.9 115.5 953 113.9 950.9 115.8 948.1 117 945 117ZM946.5 139C945.6 139.1 944.7 139.3 943.7 139.4L942.1 135.5C944.4 135.3 946.4 134.9 948.3 134.6L946.5 139ZM951.9 125.9C948.5 126.7 944.2 127.5 939 127.8L937.4 123.9C944.7 123.5 950.3 122.3 953.9 121.3L951.9 125.9Z"/></g></svg>